<?xml version="1.0" standalone="no"?>
<!DOCTYPE svg PUBLIC "-//W3C//DTD SVG 1.1//EN" "http://www.w3.org/Graphics/SVG/1.1/DTD/svg11.dtd" >
<svg xmlns="http://www.w3.org/2000/svg">
<metadata></metadata>
<defs>
<font id="ralentabold" horiz-adv-x="1212" >
<font-face units-per-em="2048" ascent="1638" descent="-410" />
<missing-glyph horiz-adv-x="491" />
<glyph horiz-adv-x="2048" />
<glyph horiz-adv-x="2048" />
<glyph unicode="&#xd;" horiz-adv-x="491" />
<glyph unicode=" "  horiz-adv-x="491" />
<glyph unicode="&#x09;" horiz-adv-x="491" />
<glyph unicode="&#xa0;" horiz-adv-x="491" />
<glyph unicode="!" horiz-adv-x="606" d="M82 158q0 127 135 211q104 66 182 65q49 0 50 -24q0 -16 -5.5 -45t-5.5 -33q0 -25 5.5 -76t5.5 -57q0 -115 -84 -170q-68 -45 -177 -45q-59 0 -82.5 52t-23.5 122zM82 1346q0 37 143.5 53t243.5 71q55 0 55 -75q-31 -68 -63 -299q-25 -166 -47 -400q-10 -100 -19 -200 q-18 -25 -67 -35t-95 -29h-67q0 258 -17.5 446.5t-44.5 350.5q-12 57 -22 117z" />
<glyph unicode="&#x22;" horiz-adv-x="899" d="M82 1298q0 39 30.5 80t73.5 57.5t64 22.5q36 12 61 12q53 0 76 -64.5t23 -143.5q0 -82 -55.5 -165t-172.5 -171h-49q18 66 19 104q0 43 -35 135t-35 133zM489 1298q0 39 31 80t74 57.5t63 22.5q37 12 62 12q53 0 75.5 -64.5t22.5 -143.5q0 -82 -55 -165t-172 -171h-49 q18 66 18 104q0 43 -35 135t-35 133z" />
<glyph unicode="#" horiz-adv-x="1462" d="M82 502l43 127h291l96 297q-41 0 -147.5 -4t-135.5 -4l-8 8l43 127h285q31 106 45 153q35 119 61 232l197 32l8 -8l-153 -409h245q63 211 105 385l198 32l9 -8l-154 -409h37h33h26h23h94q35 6 49 8l8 -8l-47 -127h-270l-94 -297h37h32h29h23h94q35 6 49 8l8 -8l-47 -127 h-268l-142 -502l-198 -33l-8 8q84 199 198 527h-252l-141 -502l-201 -33l-8 8q84 199 199 527q-41 0 -147.5 -4t-135.5 -4zM561 629h258l94 297h-251z" />
<glyph unicode="$" horiz-adv-x="794" d="M82 391l92 193q41 -35 55 -43q37 -18 107 -19v111q-127 39 -173 98.5t-46 145.5q0 96 47 172q57 92 172 116v31q0 78 -3 117t-18 90l177 67l16 -16q-10 -51 -13 -113.5t-3 -160.5q59 -6 112 -16.5t109 -37.5l-68 -196q-39 12 -76 26q-41 12 -77 13v-146q111 -37 155 -75 q66 -56 66 -146q0 -150 -90 -223q-39 -33 -131 -60q0 -102 6 -188t18 -131l-197 -33l-8 10q12 68 18.5 153t6.5 169q-35 4 -104.5 28.5t-149.5 63.5zM281 913q0 -37 55 -55v105q-25 -6 -40 -16.5t-15 -33.5zM492 520q23 -2 36 10.5t13 28.5q0 23 -33 37q-4 2 -16 6v-82z" />
<glyph unicode="%" horiz-adv-x="1570" d="M82 1094q0 182 57 270q70 106 236 106q137 0 209 -79q84 -94 84 -297q0 -266 -107 -355q-59 -49 -186 -49q-145 0 -219 98.5t-74 305.5zM272 1094q0 -127 22.5 -202t80.5 -75q25 0 53.5 7t32.5 20q16 53 16 250q0 109 -14 161q-25 88 -88 88q-25 0 -52.5 -10t-32.5 -20 t-11.5 -82t-6.5 -137zM457 8q57 131 127.5 326.5t136.5 408.5q45 135 102.5 346t100.5 381l184 -32l8 -8q-23 -57 -90 -242q-88 -238 -94 -256q-45 -129 -78 -225q-18 -57 -73.5 -244t-141.5 -496l-174 33zM903 371q0 182 58 270q70 106 235 107q137 0 209 -80 q84 -94 84 -297q0 -266 -107 -355q-59 -49 -186 -49q-145 0 -219 98.5t-74 305.5zM1094 371q0 -127 22.5 -202t79.5 -75q25 0 53.5 7.5t32.5 19.5q16 53 16 250q0 109 -14 161q-25 88 -88 89q-25 0 -52.5 -10.5t-32.5 -20.5t-11 -82t-6 -137z" />
<glyph unicode="&#x26;" horiz-adv-x="1513" d="M82 315q0 170 121 289q143 106 182 139q-45 37 -78 109t-33 133q0 176 130.5 304t289.5 128h535l-109 -280h-465q-25 0 -41 -18.5t-16 -47.5q0 -16 12.5 -46t32.5 -62q78 -123 182 -250q82 -98 197 -215q18 10 30.5 40.5t12.5 67.5q0 147 -90 205q-59 37 -164 37l98 205 h523l-72 -205h-141q45 -45 64.5 -121t19.5 -164q0 -115 -24 -180.5t-65 -110.5q33 -27 92.5 -43t114.5 -16l-69 -213h-344l-47 53q-86 -33 -191.5 -59.5t-196.5 -26.5q-197 0 -335 86q-156 96 -156 262zM469 424q0 -76 73.5 -137.5t170.5 -61.5q14 0 27 4.5t36 14.5 l-258 301q-49 -41 -49 -121z" />
<glyph unicode="'" horiz-adv-x="491" d="M82 1298q0 39 30.5 80t73.5 57.5t64 22.5q36 12 61 12q53 0 76 -64.5t23 -143.5q0 -82 -55.5 -165t-172.5 -171h-49q18 66 19 104q0 43 -35 135t-35 133z" />
<glyph unicode="(" horiz-adv-x="663" d="M82 743q0 195 96 418q82 190 217 371q12 14 70.5 30.5t114.5 30.5l8 -22q-117 -129 -176 -361q-47 -182 -47 -362q0 -328 102 -535q123 -174 156 -223v-20l-183 -238h-30q-106 94 -201 305q-127 287 -127 606z" />
<glyph unicode=")" horiz-adv-x="663" d="M41 1335v21l182 237h31q106 -94 201 -305q127 -287 127 -606q0 -195 -97 -418q-82 -190 -217 -370q-12 -14 -71.5 -31t-112.5 -31l-8 23q117 129 176 360q47 182 47 363q0 328 -102 534q-123 174 -156 223z" />
<glyph unicode="*" horiz-adv-x="923" d="M41 1016q0 33 41 67q16 14 47 31q39 23 92 23q43 0 91 -14.5t77 -28.5l14 -25l-61 -22q-66 -63 -129 -127q-14 -8 -39 -9q-41 0 -70 23q-14 10 -30 27q-33 33 -33 55zM166 1311q2 18 8 42.5t16.5 43t40.5 18.5q23 0 45.5 -8t55.5 -27q59 -35 90 -118q18 -52 24 -115 l-14 -29q-14 16 -30.5 28.5t-20.5 16.5q-88 23 -174 47q-23 14 -35 42t-6 59zM256 803q0 55 37.5 112.5t109.5 102.5h29l-8 -64q0 -29 27 -110q14 -45 14 -64q0 -63 -66 -88q-16 -6 -41.5 -14t-40.5 -8q-33 0 -47 40t-14 93zM457 1360q0 27 18.5 52.5t43 34.5t47 16t38.5 7 q33 0 48.5 -42t15.5 -91q0 -55 -35 -108q-41 -62 -113 -107h-31q10 37 11 66q0 27 -29 108q-14 41 -14 64zM475 993l17 29q29 -31 52 -44t109 -30q43 -8 62 -18q43 -25 43 -80q0 -29 -5 -55.5t-17.5 -48t-43.5 -21.5q-23 0 -45 8t-57 27q-59 35 -90 121q-15 40 -25 112z M520 1073q37 8 62.5 22.5t66.5 64.5t58.5 59.5t40.5 9.5q41 0 74.5 -27.5t37.5 -32.5q23 -25 23 -45q0 -25 -26 -49t-64.5 -47.5t-92.5 -23.5q-45 0 -89.5 13.5t-75.5 29.5z" />
<glyph unicode="+" horiz-adv-x="1392" d="M82 729l51 148h490v489l147 51l8 -8q0 -37 -4 -189.5t-4 -195.5v-147h102l431 8l8 -8l-51 -148h-490v-489l-147 -52l-9 9l9 430v102h-148q-82 0 -221 -4t-164 -4z" />
<glyph unicode="," horiz-adv-x="491" d="M82 238q0 39 30.5 79.5t73.5 57t64 22.5q36 13 61 13q53 0 76 -64.5t23 -144.5q0 -82 -55.5 -165t-172.5 -171h-49q18 66 19 104q0 43 -35 135.5t-35 133.5z" />
<glyph unicode="-" horiz-adv-x="608" d="M41 514l72 205h225q53 0 136 4t85 4l8 -8l-80 -205h-223q-162 -8 -217 -8z" />
<glyph unicode="." horiz-adv-x="530" d="M82 158q0 127 135 211q104 66 182 65q49 0 50 -24q0 -16 -5.5 -45t-5.5 -33q0 -25 5.5 -76t5.5 -57q0 -115 -84 -170q-68 -45 -177 -45q-59 0 -82.5 52t-23.5 122z" />
<glyph unicode="/" horiz-adv-x="741" d="M41 8q57 131 128 326.5t136 408.5q45 135 102.5 346t100.5 381l184 -32l8 -8q-23 -57 -90 -242q-88 -238 -94 -256q-45 -129 -78 -225q-18 -57 -73.5 -244t-141.5 -496l-174 33z" />
<glyph unicode="0" d="M41 743q0 352 111 523q133 205 454 204q262 0 404 -157q161 -181 161 -570q0 -358 -102 -548q-80 -150 -227 -199q-86 -29 -236 -29q-252 0 -393 156q-106 119 -147 328q-25 127 -25 292zM410 743q0 -250 36 -372q47 -156 160 -156q55 0 107.5 12.5t60.5 36.5 q29 98 29 479q0 203 -29 306q-45 164 -168 163q-51 0 -102 -15t-61.5 -31.5t-21.5 -165t-11 -257.5z" />
<glyph unicode="1" d="M205 1165v168q322 53 604 137l8 -8q0 -61 -4 -307t-4 -307q0 -137 3 -267t5 -202q0 -70 33 -118t80 -48h139l-78 -213h-776l78 213q72 0 123 47t51 115q2 16 4 125.5t2 197.5v54v45v39v30v27q0 90 -6 115q-20 158 -129 157h-133z" />
<glyph unicode="2" d="M154 0v209q160 170 319 340q186 238 186 467q0 61 -55 106t-133 45q-55 0 -141 -17t-140 -56l-8 8l119 321q61 18 155.5 32.5t145.5 14.5q193 0 326 -104t133 -256q0 -168 -135 -379t-363 -395h238q82 0 152.5 9t152.5 26l8 -9q-41 -96 -71.5 -183t-55.5 -179h-833z" />
<glyph unicode="3" d="M180 -127l60 184q168 49 278 164q100 104 100 230q0 104 -63 151q-47 35 -135 35q-47 0 -79 -7t-69 -20l-8 8q25 63 46.5 139.5t35.5 151.5q61 27 116.5 36t121.5 9q14 25 24 60t10 59q0 66 -38.5 92.5t-106.5 26.5q-49 0 -110.5 -6t-104.5 -17l-8 9q31 59 59 129 q18 47 41 120q29 18 87.5 30.5t115.5 12.5q199 0 297 -94q92 -88 92 -250q0 -51 -35 -110q-45 -76 -129 -127q197 -107 197 -340q0 -193 -232 -387q-219 -184 -555 -297z" />
<glyph unicode="4" d="M57 631v16q152 147 314 377q119 168 254 397q49 0 93 8.5t167 40.5l8 -8q0 -18 -2 -165.5t-3 -314.5t-3 -351q150 0 231 8l8 -8l-110 -312h-129q0 -35 8 -149.5t8 -169.5l-385 -84l-8 8q16 47 28.5 169t12.5 226h-418q-8 86 -26.5 163t-47.5 149zM287 647l8 -8 q41 -4 126 -6t128 -2v336l-12 2q-45 -72 -119 -166t-131 -156z" />
<glyph unicode="5" d="M211 563l113 875h315q100 0 195.5 8t177.5 24l8 -8l-117 -348h-418l-26 -162q289 0 425 -117.5t136 -351.5q0 -193 -152 -340q-117 -115 -329 -204q-111 -47 -310 -107l-8 8l17 127q221 94 317 211q84 100 84 223q0 104 -70 150q-55 37 -153 37q-59 0 -109.5 -9.5 t-87.5 -23.5z" />
<glyph unicode="6" d="M115 625q0 383 227 653q215 254 551 315l8 -8l-14 -115q-113 -27 -203 -104q-100 -88 -139 -215q291 0 416 -123q145 -143 145 -450q0 -291 -115 -445q-123 -166 -370 -166q-229 0 -367.5 183.5t-138.5 474.5zM459 602q0 -205 63 -305q57 -92 164 -92q53 0 82 112 q23 87 23 175q0 98 -16.5 182t-43 111.5t-85 41t-165.5 13.5q-10 -70 -16 -132.5t-6 -105.5z" />
<glyph unicode="7" d="M152 1073q33 70 71 187q33 98 56 186q39 0 162.5 -3t203.5 -5q72 0 182.5 2t241.5 6l8 -8q-119 -301 -256 -740.5t-203 -730.5l-403 -102l-8 8q127 264 289 645q143 338 221 555l-4 8q-371 0 -555 -16z" />
<glyph unicode="8" d="M55 303q0 100 97 217q29 35 219 225q-156 143 -158 146q-84 100 -84 239q0 201 176 285q117 55 297 55q227 0 340 -67q96 -57 96 -162q0 -139 -104 -246q-121 -92 -148 -114q135 -109 271 -217q100 -125 100 -287q0 -182 -157.5 -296t-430.5 -114q-285 0 -417 123 q-96 90 -97 213zM379 395q0 -76 72.5 -123t181.5 -47q70 0 119 29t49 72q0 59 -71 129.5t-218 171.5q-70 -80 -101.5 -137.5t-31.5 -94.5zM442 1182q0 -37 53.5 -87.5t131.5 -84.5q41 25 64.5 68.5t23.5 72.5q0 70 -43 93.5t-103 23.5q-51 0 -89 -24.5t-38 -61.5z" />
<glyph unicode="9" d="M115 860q0 291 108 445q119 166 357 165q227 0 363 -166.5t136 -455.5q0 -377 -221 -667t-539 -349l-8 8l13 127q96 23 204.5 168.5t149.5 286.5q-23 -6 -67 -12.5t-95 -6.5q-166 0 -283.5 134.5t-117.5 322.5zM430 946q0 -137 65.5 -198.5t217.5 -61.5q10 39 16 96.5 t6 112.5q0 201 -57 287q-49 76 -154 75q-59 0 -84 -176q-10 -76 -10 -135z" />
<glyph unicode=":" horiz-adv-x="530" d="M82 158q0 127 135 211q104 66 182 65q49 0 50 -24q0 -16 -5.5 -45t-5.5 -33q0 -25 5.5 -76t5.5 -57q0 -115 -84 -170q-68 -45 -177 -45q-59 0 -82.5 52t-23.5 122zM82 1042q0 127 135 211q104 66 182 66q49 0 50 -25q0 -16 -5.5 -44.5t-5.5 -32.5q0 -25 5.5 -76t5.5 -58 q0 -115 -84 -170q-68 -45 -177 -45q-59 0 -82.5 52.5t-23.5 121.5z" />
<glyph unicode=";" horiz-adv-x="530" d="M82 1042q0 127 135 211q104 66 182 66q49 0 50 -25q0 -16 -5.5 -44.5t-5.5 -32.5q0 -25 5.5 -76t5.5 -58q0 -115 -84 -170q-68 -45 -177 -45q-59 0 -82.5 52.5t-23.5 121.5zM121 238q0 39 30.5 79.5t73.5 57t64 22.5q36 13 61 13q53 0 76 -64.5t23 -144.5 q0 -82 -55.5 -165t-172.5 -171h-49q18 66 18 104q0 43 -34.5 135.5t-34.5 133.5z" />
<glyph unicode="&#x3c;" horiz-adv-x="874" d="M82 520v19q145 129 285 258q180 166 286 276l140 -65v-9q-141 -115 -275 -239q-143 -135 -231 -232q158 -156 317 -309q141 -135 189 -178v-8l-140 -66q-127 139 -300 306t-271 247z" />
<glyph unicode="=" horiz-adv-x="1392" d="M82 496l51 147h739l431 8l8 -8l-51 -147h-785q-82 0 -221 -4.5t-164 -4.5zM82 905l51 148h739l431 8l8 -8l-51 -148h-785q-82 0 -221 -4t-164 -4z" />
<glyph unicode="&#x3e;" horiz-adv-x="874" d="M82 33v8q141 115 274 240q143 135 232 231q-160 154 -318 309q-141 135 -188 178v9l139 65q127 -139 300.5 -306t271.5 -247v-18q-145 -129 -285 -258q-180 -166 -287 -277z" />
<glyph unicode="?" horiz-adv-x="862" d="M82 1192q43 43 100.5 128t85.5 150q207 0 340 -71q172 -93 172 -283q0 -137 -130 -265t-130 -179q0 -20 19 -45q27 -35 82 -62v-8q-23 -43 -71 -59.5t-128 -16.5q-119 0 -174 46t-55 118q0 74 124.5 207t124.5 207t-57 103.5t-149 29.5q-29 0 -77 -4t-71 -8zM213 158 q0 127 135 211q104 66 182 65q49 0 50 -24q0 -16 -5.5 -45t-5.5 -33q0 -25 5.5 -76t5.5 -57q0 -115 -84 -170q-68 -45 -177 -45q-59 0 -82.5 52t-23.5 122z" />
<glyph unicode="@" horiz-adv-x="1759" d="M82 623q0 342 254 589q264 258 665 258q334 0 512 -200q164 -186 164 -504q0 -197 -112 -363q-127 -188 -316 -188q-76 0 -140.5 38t-94.5 105q-51 -63 -121 -103t-141 -40q-246 0 -246 309q0 135 57 260q51 111 135 189q45 43 110.5 71.5t131.5 28.5t105.5 -23.5 t74.5 -84.5l21 88h178l-150 -666q-8 -37 16.5 -59.5t63.5 -22.5q115 0 210 147.5t95 344.5q0 238 -151 397q-160 168 -420 168q-336 0 -537 -232q-188 -217 -188 -536q0 -297 188 -479q180 -174 457 -174q164 0 266.5 26.5t196.5 93.5l45 -92q-113 -68 -246 -102.5 t-301 -34.5q-317 0 -542 211q-240 225 -240 580zM700 543q0 -117 18.5 -170.5t78.5 -53.5q102 0 182 130q68 108 84 243q6 35 8 53.5t2 59.5q0 76 -22.5 125t-75.5 49q-106 0 -190.5 -142.5t-84.5 -293.5z" />
<glyph unicode="A" horiz-adv-x="1423" d="M0 0l78 213q31 8 55.5 31.5t40.5 58.5q115 264 232 584q106 293 182 543l297 40q57 -209 169.5 -522t219.5 -567q27 -63 75 -119.5t74 -56.5l-73 -205h-699l76 205q90 0 129 51q29 37 29 94q0 35 -19 113q-31 0 -94 4t-98 4q-33 0 -96.5 -4t-96.5 -4q-25 -78 -24 -113 q0 -72 49 -108.5t115 -36.5l-76 -205h-545zM555 668q31 -4 58.5 -6.5t64.5 -2.5q53 0 78 3q33 6 47 6q-55 153 -129 288z" />
<glyph unicode="B" horiz-adv-x="1357" d="M33 0l78 213q43 0 64.5 26.5t21.5 67.5q0 47 3 193.5t5 242.5q0 72 -3 167.5t-5 201.5q0 51 -39 86t-92 35l71 205h606q197 0 336.5 -98.5t139.5 -239.5q0 -109 -33 -170q-39 -74 -166 -129q145 -68 190 -113q99 -100 99 -299q0 -160 -144.5 -274.5t-347.5 -114.5h-784z M561 244q35 -31 170 -31q70 0 119 53t49 131q0 104 -74.5 177t-183.5 73q-47 0 -80 -14v-389zM561 897h90q70 0 118 48t48 128q0 76 -44 118t-114 42q-98 0 -98 -74v-262z" />
<glyph unicode="C" horiz-adv-x="1323" d="M49 743q0 334 152 525q161 202 466 202h3q115 0 292 -18t324 -47v-352l-248 -111l-16 12v99q0 63 -60.5 111t-125.5 48q-113 0 -181.5 -14t-107.5 -53q-51 -53 -73.5 -149.5t-22.5 -252.5q0 -285 102 -385q79 -79 276 -79h5q57 0 191 18t245 47l16 -22l-74 -302 q-72 -20 -192.5 -36.5t-208.5 -16.5q-395 0 -600 266q-162 211 -162 510z" />
<glyph unicode="D" horiz-adv-x="1593" d="M33 0l78 213q43 0 64.5 26.5t21.5 67.5q0 47 3 193.5t5 242.5q0 72 -3 167.5t-5 201.5q0 51 -39 86t-92 35l71 205h703q352 0 524 -162q180 -171 180 -533q0 -307 -181 -525t-437 -218h-893zM561 709l4 -439q31 -25 103.5 -41t150.5 -16t136.5 16.5t97.5 63.5t60.5 183 t21.5 267q0 240 -74 353q-90 137 -313 137q-88 0 -111 -6q-72 -20 -72 -154z" />
<glyph unicode="E" horiz-adv-x="1316" d="M33 0l78 213q43 0 64.5 26.5t21.5 67.5q0 47 3 193.5t5 242.5q0 72 -3 167.5t-5 201.5q0 51 -39 86t-92 35l71 205h1106v-332l-237 -53q0 76 -35 128t-107 52h-176q-47 0 -83 -27.5t-36 -66.5q0 -31 -4 -157t-4 -155h98q39 0 70 29t31 70l246 55v-477l-246 -55v55 q0 47 -30 78.5t-71 31.5h-98q0 -74 4 -204.5t4 -157.5q33 -16 98.5 -27.5t145.5 -11.5q104 0 156 78q37 57 37 129l258 57v-477h-1231z" />
<glyph unicode="F" horiz-adv-x="1261" d="M33 0l78 213q43 0 64.5 26.5t21.5 67.5q0 47 3 193.5t5 242.5q0 72 -3 167.5t-5 201.5q0 51 -39 86t-92 35l71 205h1104v-332l-237 -53v37q0 61 -39 102t-103 41h-176q-47 0 -83 -27.5t-36 -66.5q0 -31 -4 -157t-4 -155h98q39 0 70 29t31 70l246 55v-477l-246 -55v55 q0 47 -30 78.5t-71 31.5h-98l8 -307q0 -49 32 -71.5t79 -22.5h49l-78 -213h-616z" />
<glyph unicode="G" horiz-adv-x="1579" d="M49 743q0 330 169 528.5t478 198.5q115 0 340.5 -20t362.5 -45v-352l-307 -111l-9 8v62q0 82 -71.5 141t-173.5 59q-199 0 -277 -71q-66 -63 -88 -155.5t-22 -242.5q0 -285 131 -411q109 -106 311 -107q61 0 105 25.5t44 66.5v70q0 61 -61 106.5t-152 45.5l74 204h656 l-74 -204q-31 0 -58.5 -28t-27.5 -67v-383q-84 -25 -295 -59.5t-291 -34.5q-410 0 -602 236q-162 197 -162 540z" />
<glyph unicode="H" horiz-adv-x="1562" d="M33 0l78 213q43 0 64.5 26.5t21.5 67.5q0 47 3 193.5t5 242.5q0 72 -3 167.5t-5 201.5q0 51 -39 86t-92 35l71 205h588l-74 -205q-31 0 -58.5 -27.5t-27.5 -66.5l-4 -258q41 -4 108.5 -6.5t112.5 -2.5q16 0 96 4.5t128 4.5l-5 231q0 51 -38.5 86t-92.5 35l72 205h588 l-74 -205q-31 0 -58.5 -27.5t-27.5 -66.5q0 -45 -3 -178.5t-5 -217.5q0 -84 2 -196.5t6 -239.5q0 -49 32 -71.5t79 -22.5h49l-78 -213h-614l77 213q43 0 64.5 26.5t21.5 67.5l5 344q-41 0 -99.5 2t-124.5 6q-25 0 -114.5 -4t-106.5 -4l4 -344q0 -49 32 -71.5t79 -22.5h49 l-78 -213h-614z" />
<glyph unicode="I" horiz-adv-x="761" d="M33 0l78 213q43 0 64.5 26.5t21.5 67.5q0 47 3 193.5t5 242.5q0 72 -3 167.5t-5 201.5q0 51 -39 86t-92 35l71 205h592l-74 -205q-31 0 -58.5 -27.5t-27.5 -66.5q0 -45 -3 -178.5t-5 -217.5q0 -84 2 -196.5t6 -239.5q0 -49 32 -71.5t79 -22.5h49l-78 -213h-618z" />
<glyph unicode="J" horiz-adv-x="716" d="M-51 -428q74 12 144.5 135t70.5 260q0 94 5 345t5 288q0 125 -4 261t-6 251q0 51 -39 86t-92 35l71 205h592l-73 -205q-31 0 -58.5 -27.5t-27.5 -66.5q-8 -94 -9 -396q0 -121 2 -303t7 -393v-80q0 -225 -149.5 -382.5t-354.5 -157.5h-84v145z" />
<glyph unicode="K" horiz-adv-x="1447" d="M33 0l78 213q43 0 64.5 26.5t21.5 67.5q0 47 3 193.5t5 242.5q0 72 -3 167.5t-5 201.5q0 51 -39 86t-92 35l71 205h584l-74 -205q-31 0 -58.5 -27.5t-27.5 -66.5v-269q39 14 96.5 68.5t102.5 114.5q14 18 28 39q23 35 23 47q0 39 -23.5 66.5t-58.5 27.5l74 205h551 l-74 -205q-61 0 -117.5 -31t-111.5 -90l-260 -274q20 -18 53 -50q53 -49 82 -79q80 -84 186 -215q88 -109 164 -207q23 -29 75 -51.5t97 -22.5l-78 -213h-342q-96 133 -190 266q-125 160 -265 305h-12l4 -264q0 -49 32 -71.5t79 -22.5h49l-78 -213h-614z" />
<glyph unicode="L" horiz-adv-x="1175" d="M33 0l78 213q43 0 64.5 26.5t21.5 67.5q0 47 3 193.5t5 242.5q0 72 -3 167.5t-5 201.5q0 51 -39 86t-92 35l71 205h592l-74 -205q-31 0 -58.5 -27.5t-27.5 -66.5q0 -27 -4 -170.5t-4 -225.5v-503q57 -27 141 -27q104 0 156 78q37 57 37 129l260 57v-477h-1122z" />
<glyph unicode="M" horiz-adv-x="2004" d="M33 0l78 213q43 0 64.5 26.5t21.5 67.5q0 47 3 193.5t5 242.5q0 72 -3 167.5t-5 201.5q0 51 -39 86t-92 35l71 205h457q82 -201 209 -445.5t233 -406.5q88 143 202 395t181 457h553l-74 -205q-31 0 -58.5 -27.5t-27.5 -66.5q0 -45 -3 -178.5t-5 -217.5q0 -84 2 -196.5 t6 -239.5q0 -49 32 -71.5t79 -22.5h49l-78 -213h-659l78 213q151 0 151 147q0 55 4 252t5 232h-9q-82 -150 -200 -416q-109 -244 -181 -428l-190 -29q-104 227 -235.5 478t-221.5 395h-10l8 -428q0 -84 47 -143.5t119 -59.5h96l-78 -213h-585z" />
<glyph unicode="N" horiz-adv-x="1593" d="M33 0l78 213q43 0 64.5 26.5t21.5 67.5q0 49 3 195.5t5 240.5q0 70 -3 165.5t-5 203.5q0 49 -50.5 85t-109.5 36l72 205h331q106 -135 256 -316q113 -135 236 -278q135 -158 207 -240h12q0 94 -3 219t-5 264q0 74 -67.5 110t-229.5 36l72 205h643l-74 -205 q-31 0 -58.5 -27.5t-27.5 -66.5q0 -23 -4 -166.5t-4 -229.5q0 -221 8 -416.5t20 -252.5l-299 -107h-43q-188 289 -315 459q-133 178 -311 375h-13q0 -78 2 -177.5t7 -207.5q0 -78 64.5 -140.5t160.5 -62.5h82l-78 -213h-645z" />
<glyph unicode="O" horiz-adv-x="1687" d="M49 743q0 367 188.5 547t591.5 180q369 0 592 -208q217 -204 217 -519q0 -389 -212 -582.5t-623 -193.5q-365 0 -559.5 201t-194.5 575zM446 743q0 -225 66 -319q88 -125 332 -125q100 0 180 16.5t118 56.5t56.5 146t18.5 225q0 180 -64 289q-94 160 -319 160 q-104 0 -191.5 -17.5t-118.5 -56.5q-39 -47 -58.5 -148.5t-19.5 -226.5z" />
<glyph unicode="P" horiz-adv-x="1265" d="M33 0l78 213q43 0 64.5 26.5t21.5 67.5q0 47 3 193.5t5 242.5q0 72 -3 167.5t-5 201.5q0 51 -39 86t-92 35l71 205h643q195 0 320 -121t125 -301q0 -242 -121 -373t-338 -131q-61 0 -121.5 4t-83.5 12l4 -180q0 -55 32 -95t77 -40h92l-78 -213h-655zM561 805 q27 -8 56.5 -17.5t48.5 -9.5q78 0 128 54.5t50 150.5q0 100 -39 170q-45 80 -127 80q-45 0 -77 -27.5t-32 -68.5q0 -37 -3 -148.5t-5 -183.5z" />
<glyph unicode="Q" horiz-adv-x="1687" d="M49 743q0 367 188.5 547t591.5 180q369 0 592 -208q217 -204 217 -519q0 -389 -212 -582.5t-623 -193.5q-365 0 -559.5 201t-194.5 575zM201 -268q63 92 237 160.5t293 68.5q133 0 379 -106.5t358 -106.5q127 0 220 53q31 16 67 56q43 -35 76 -80q-111 -131 -277 -213 q-156 -76 -313 -76q-82 0 -237.5 51t-311 102.5t-241.5 51.5q-45 0 -97.5 -16.5t-77.5 -38.5q-31 25 -75 94zM446 743q0 -225 66 -319q88 -125 332 -125q100 0 180 16.5t118 56.5t56.5 146t18.5 225q0 180 -64 289q-94 160 -319 160q-104 0 -191.5 -17.5t-118.5 -56.5 q-39 -47 -58.5 -148.5t-19.5 -226.5z" />
<glyph unicode="R" horiz-adv-x="1351" d="M33 0l78 213q43 0 64.5 26.5t21.5 67.5q0 47 3 193.5t5 242.5q0 72 -3 167.5t-5 201.5q0 51 -39 86t-92 35l71 205h631q201 0 314.5 -85t113.5 -241q0 -188 -111 -278q-127 -66 -159 -84q88 -104 147.5 -213t108.5 -230q16 -37 68.5 -65.5t101.5 -28.5l-78 -213h-342 q-88 229 -156 352q-88 160 -203 260h-12q0 -109 2 -191.5t6 -113.5q0 -49 32 -71.5t79 -22.5h49l-78 -213h-618zM561 899q41 -14 61.5 -18t41.5 -4q70 0 112.5 54.5t42.5 115.5q0 66 -39 126t-96 60q-92 0 -104 -47q-8 -45 -11 -72q-8 -70 -8 -215z" />
<glyph unicode="S" horiz-adv-x="1175" d="M49 1094q0 156 152.5 266t367.5 110q199 0 475 -32v-357l-237 -53v45q0 92 -53.5 126t-145.5 34q-72 0 -111.5 -36t-39.5 -81q0 -82 172 -172q270 -139 323 -180q174 -131 174 -311q0 -219 -151 -340q-139 -113 -365 -113h-538v473l270 64v-58q0 -135 59.5 -200.5 t153.5 -65.5q59 0 110.5 49t51.5 111q0 98 -172 188q-274 143 -322 180q-174 139 -174 353z" />
<glyph unicode="T" horiz-adv-x="1216" d="M20 918v520h1176v-439l-229 -81h-17v135q0 57 -48 98t-116 41v-344q0 -150 3.5 -288t5.5 -214q0 -57 31.5 -95t78.5 -38h99l-78 -213h-731l77 213q59 0 104.5 39t45.5 94q0 45 3 217t5 285v344q-68 0 -116 -40t-48 -99v-54l-229 -81h-17z" />
<glyph unicode="U" horiz-adv-x="1478" d="M33 1233l71 205h584l-74 -205q-31 0 -58.5 -27.5t-27.5 -66.5t-3 -260.5t-5 -366.5q0 -141 98 -211q74 -51 173 -51q266 0 266 295q0 109 -3 255t-5 312q0 51 -39 86t-92 35h-41l73 205h508l-74 -205q-31 0 -58.5 -27.5t-27.5 -66.5q0 -121 4.5 -404.5t4.5 -304.5 q0 -227 -195 -356q-162 -106 -381 -107q-272 0 -428 152q-147 143 -147 375q0 104 4 353t4 265q0 51 -39 86t-92 35z" />
<glyph unicode="V" horiz-adv-x="1402" d="M20 1233l74 205h699l-76 -205q-90 0 -129 -51q-29 -37 -29 -95q0 -55 75 -234t175 -372q82 188 142.5 367.5t60.5 238.5q0 70 -59.5 108t-129.5 38l76 205h496l8 -8q-129 -313 -277.5 -729t-232.5 -693l-297 -41q-37 156 -164 479.5t-262 610.5q-33 70 -78 123t-72 53z " />
<glyph unicode="W" horiz-adv-x="2048" d="M20 1233l74 205h699l-74 -205q-68 0 -105 -27q-55 -39 -55 -135q0 -18 41 -142t102 -292q63 160 123 350.5t121 450.5l248 32q68 -231 162 -480t168 -396q51 143 93 298t42 202q0 57 -49 98t-121 41h-107l76 205h582l8 -8q-80 -205 -164 -463q-76 -229 -143 -469 q-51 -178 -135 -490l-310 -41q-55 178 -88 271q-23 63 -92 239q-61 156 -123 311q-45 -137 -108.5 -365t-106.5 -415l-282 -41q-66 301 -169.5 628t-187.5 505q-33 70 -64.5 101.5t-54.5 31.5z" />
<glyph unicode="X" horiz-adv-x="1413" d="M0 0l78 213q27 0 72 27q55 33 102 92l291 362l-295 416q-47 68 -86 95.5t-80 27.5l74 205h645l-74 -205q-35 0 -50 -26.5t-15 -65.5q0 -27 34 -80q27 -39 82 -105q45 57 76 109.5t31 75.5q0 41 -18.5 66.5t-57.5 25.5l76 205h487l-74 -205q-37 0 -79.5 -25.5t-73.5 -66.5 l-254 -346l323 -439q47 -66 94.5 -104.5t84.5 -38.5l-78 -213h-690l77 213q41 0 67 17.5t26 43.5q0 59 -113 222q-129 -139 -129 -222q0 -25 26.5 -43t63.5 -18l-78 -213h-565z" />
<glyph unicode="Y" horiz-adv-x="1372" d="M20 1233l72 205h682l-74 -205q-49 0 -81.5 -28.5t-32.5 -69.5q0 -23 40 -100t89 -136q66 96 135 236q80 160 129 303q94 0 203.5 8t201.5 24l9 -8q-178 -227 -299 -409q-133 -203 -271 -463q0 -55 2 -129t6 -154q0 -49 32 -71.5t79 -22.5h49l-78 -213h-610l78 213 q43 0 64.5 26.5t21.5 67.5v219l-281 547q-35 66 -83 113t-83 47z" />
<glyph unicode="Z" horiz-adv-x="1286" d="M49 975q27 80 57 225q25 123 44 238h915l106 -262q-61 -66 -142 -175.5t-134 -197.5l-352 -584l2 -6h168q88 0 169 77t124 206h231l8 -9q-18 -76 -38.5 -181t-51.5 -306h-1014q-51 98 -71 229q31 37 82 102.5t120 172.5l471 719l-2 10h-149q-154 0 -240 -92 q-55 -59 -90 -174h-205z" />
<glyph unicode="[" horiz-adv-x="706" d="M84 743q0 299 4 390q12 252 55 374q12 27 36 35t57 8q135 0 213.5 12.5t132.5 30.5l12 -61q-86 -25 -111 -35q-59 -25 -71 -59q-25 -70 -35 -246t-10 -344q0 -322 20.5 -581t54.5 -300q14 -16 77 -28.5t134 -12.5l13 -61q-88 0 -252 -16.5t-199 -16.5q-25 0 -45 33 t-33 86q-20 92 -36.5 329.5t-16.5 462.5z" />
<glyph unicode="\" horiz-adv-x="741" d="M41 1430l8 8l184 32q43 -170 100.5 -380.5t102.5 -346.5q61 -197 136 -404.5t128 -330.5l-8 -8l-174 -33q-166 594 -213 733.5t-125 356.5q-68 184 -139 373z" />
<glyph unicode="]" horiz-adv-x="694" d="M41 1499l12 62q88 0 239.5 16t186.5 16q25 0 45.5 -32.5t32.5 -85.5q20 -96 36.5 -302.5t16.5 -427.5v-86q0 -352 -12 -498.5t-47 -242.5q-12 -27 -35.5 -35t-56.5 -8q-135 0 -236 -14q-53 -8 -135 -29l-8 8l12 54q96 27 115 34q63 25 76 60q25 70 35 288t10 408 q0 309 -20.5 520t-55.5 254q-14 16 -76.5 28.5t-134.5 12.5z" />
<glyph unicode="^" horiz-adv-x="952" d="M82 657q127 117 223 222q74 79 166 194h18q90 -104 183 -207q106 -121 198 -209l-65 -139h-8q-63 78 -127 156q-84 98 -191 194q-154 -158 -227.5 -240.5t-95.5 -109.5h-9z" />
<glyph unicode="_" horiz-adv-x="1228" d="M0 -553l51 147h740l430 9l8 -9l-51 -147h-785q-82 0 -221 -4t-164 -4z" />
<glyph unicode="`" horiz-adv-x="491" d="M82 1135q0 82 55 164.5t172 170.5h49q-18 -66 -18 -104q0 -43 35 -135t35 -133q0 -39 -31 -80t-74 -57.5t-71.5 -25.5t-53.5 -9q-53 0 -75.5 64.5t-22.5 144.5z" />
<glyph unicode="a" horiz-adv-x="1132" d="M49 266q0 209 246 303q176 55 354 113q0 63 -50 102t-114 39q-94 0 -191 -14t-169 -39l-8 8l88 256q78 14 191.5 26.5t181.5 12.5q168 0 280 -57q135 -68 135 -193q0 -90 -4 -295.5t-4 -220.5q0 -41 31 -67.5t80 -26.5l-78 -213h-352l-9 100l-8 9q-72 -68 -129 -101 q-72 -41 -151 -41q-158 0 -239 83t-81 216zM387 352q0 -49 33 -81.5t82 -32.5h2q145 0 145 159v152q-115 -43 -182 -90q-80 -55 -80 -107z" />
<glyph unicode="b" horiz-adv-x="1306" d="M20 1346l72 186q92 0 217 18.5t219 42.5l13 -20q0 -63 -6.5 -206.5t-6.5 -233.5v-144q47 35 124 59.5t167 24.5q182 0 311 -155q123 -148 123 -347q0 -285 -191.5 -444.5t-504.5 -159.5q-225 0 -305 43t-80 144q0 27 6 69q14 102 15 144v376l-9 461q0 59 -32.5 100.5 t-79.5 41.5h-52zM528 485q0 -137 21 -184q41 -96 178 -96q74 0 123 125q39 100 39 186q0 143 -54.5 231.5t-127.5 88.5q-98 0 -146 -134q-33 -92 -33 -217z" />
<glyph unicode="c" horiz-adv-x="964" d="M53 481q0 297 150 449q143 143 409 143q45 0 119 -14.5t135 -34.5l41 -258l-10 -23q-45 29 -141.5 48.5t-165.5 19.5q-98 0 -135 -41q-16 -18 -26.5 -75.5t-10.5 -121.5q0 -147 74 -233q68 -78 167 -78q82 0 159 10.5t112 26.5l6 -10l-74 -279q-49 -16 -128 -29.5 t-134 -13.5q-244 0 -395.5 145.5t-151.5 368.5z" />
<glyph unicode="d" horiz-adv-x="1306" d="M53 502q0 180 92 342q131 229 390 229q59 0 141 -29.5t131 -78.5l-2 239q0 57 -33 98t-80 41h-51l72 189q92 0 217 18.5t219 42.5l12 -20q0 -127 -2 -217q-10 -453 -10 -508q0 -143 3 -284.5t7 -256.5q0 -41 31 -67.5t80 -26.5l-78 -213h-363l-8 100l-8 9 q-82 -57 -171 -99.5t-146 -42.5q-238 0 -349 162q-94 137 -94 373zM418 526q0 -127 53 -213q67 -108 197 -108h2q51 0 81.5 19.5t61.5 54.5v301q0 119 -54 187.5t-128 68.5q-92 0 -152.5 -93.5t-60.5 -216.5z" />
<glyph unicode="e" horiz-adv-x="1118" d="M53 530q0 221 148 375q162 168 424 168q207 0 329.5 -138t122.5 -345q0 -80 -8 -109q-70 0 -286 3t-353 5q0 -92 80 -155.5t197 -63.5q109 0 185.5 11.5t143.5 35.5l8 -8l-96 -282q-39 -35 -116.5 -47.5t-227.5 -12.5q-268 0 -416 166q-135 154 -135 397zM438 711 q33 -4 86 -8.5t86 -4.5h68q20 0 31.5 21.5t11.5 42.5q0 55 -32 80.5t-89 25.5q-29 0 -58.5 -10t-43 -22.5t-33 -49t-27.5 -75.5z" />
<glyph unicode="f" horiz-adv-x="839" d="M33 0l78 213q43 0 64.5 26.5t21.5 67.5q0 61 3 242.5t5 298.5h-144l74 205h70l-4 194q0 109 93 211.5t218 102.5h410l-86 -238h-156q-51 0 -76.5 -21.5t-34.5 -80.5l-8 -168h303l-73 -205h-230q0 -162 3 -311.5t5 -229.5q0 -49 32 -71.5t79 -22.5h49l-78 -213h-618z" />
<glyph unicode="g" horiz-adv-x="1179" d="M0 -305q0 117 39 178q23 37 100 96q-27 25 -41 55.5t-14 75.5q0 49 57 117q43 51 107 96q-51 47 -101 95q-63 80 -63 219q0 186 136 316t329 130q49 0 139 -12t156 -29l330 41l6 -20l-54 -205h-163q29 -29 44 -79t15 -116q0 -246 -172 -344q-113 -65 -307 -65h-6 q-45 0 -78 5t-51 13v-18q0 -18 22.5 -32.5t52.5 -14.5h230q201 0 288 -58q106 -70 107 -237q0 -223 -227 -357q-201 -118 -475 -118h-5q-158 0 -268 59q-133 72 -133 209zM303 -178q0 -76 94 -121q78 -37 166 -37q121 0 193.5 35t72.5 98q0 35 -51 58q-25 10 -45 10h-411 q-18 -12 -19 -43zM408 686q0 -96 26 -143q35 -61 119 -62q29 0 59.5 12.5t43 28t18.5 48t6 75.5q0 90 -27 141q-39 74 -127 74q-66 0 -86 -24q-12 -12 -22 -56.5t-10 -93.5z" />
<glyph unicode="h" horiz-adv-x="1355" d="M37 0l78 213q43 0 64.5 25.5t21.5 68.5q8 100 9 292t1 249q0 27 -2 72q-8 182 -8 284q0 57 -33 98t-80 41h-51l72 189q98 0 220 18.5t218 42.5l12 -20q-8 -68 -14 -256.5t-6 -364.5l8 -8q47 47 145.5 88t177.5 41q131 0 240 -98t109 -232l-7 -436q0 -39 32 -66.5 t79 -27.5l-78 -213h-555l78 213q51 0 76.5 27.5t25.5 66.5q6 72 7 322q0 72 -49.5 123t-118.5 51q-33 0 -71 -14.5t-56 -34.5q-10 -10 -18.5 -36t-8.5 -54q0 -23 -3 -149t-5 -208q0 -49 31.5 -71.5t78.5 -22.5h50l-78 -213h-592z" />
<glyph unicode="i" horiz-adv-x="776" d="M37 0l78 213q43 0 70.5 26.5t27.5 67.5q0 45 3 170t5 207q0 61 -32.5 100t-79.5 39h-52l72 189q92 0 212 18.5t216 42.5l8 -8l-8 -420q0 -66 2 -152.5t6 -185.5q0 -49 40 -71.5t89 -22.5h49l-77 -213h-629zM221 1155q0 39 13.5 86t13.5 76q0 115 84 170q67 45 176 45 q59 0 86 -59q20 -45 20 -115q0 -125 -149 -195q-104 -49 -197 -49q-14 0 -26 8q-20 14 -21 33z" />
<glyph unicode="j" horiz-adv-x="679" d="M10 -438q72 39 129.5 173t57.5 265q0 41 3 163t5 202q0 55 -4 183t-4 136q0 57 -33 98t-80 41h-51l71 189q88 0 205 16t232 45l8 -8q0 -37 -4 -254t-4 -344q0 -86 4 -286.5t4 -213.5q0 -195 -152 -362q-162 -178 -374 -178l-13 8v127zM205 1155q0 39 13 86t13 76 q0 115 84 170q68 45 177 45q59 0 86 -59q20 -45 20 -115q0 -125 -149 -195q-104 -49 -197 -49q-14 0 -27 8q-20 14 -20 33z" />
<glyph unicode="k" horiz-adv-x="1325" d="M37 0l78 213q43 0 64.5 26.5t21.5 67.5q0 61 5 230.5t5 205.5q0 104 -1 240.5t-9 220.5q0 57 -33 98t-80 41h-51l72 189q100 0 227 18.5t221 42.5l12 -20q-10 -4 -16 -292t-6 -605h10q31 4 83 48t52 79q0 45 -74 45l74 205h527l-74 -205q-68 0 -145.5 -47t-120.5 -109 q57 -49 131 -164q63 -104 127 -206q31 -43 87 -76t101 -33l-78 -213h-373q-98 252 -167.5 363.5t-133.5 125.5h-26v-182q0 -49 32.5 -71.5t79.5 -22.5h50l-78 -213h-594z" />
<glyph unicode="l" horiz-adv-x="747" d="M37 0l78 213q43 0 69.5 26.5t26.5 67.5q0 57 5 267t5 274q0 119 -2 204t-8 152q0 57 -33 98t-80 41h-51l72 189q92 0 217 18.5t219 42.5l12 -20q0 -86 -5 -367.5t-5 -357.5q0 -215 2 -348t8 -193q0 -49 33 -71.5t78 -22.5h49l-78 -213h-612z" />
<glyph unicode="m" horiz-adv-x="1871" d="M37 0l78 213q43 0 64.5 26.5t21.5 67.5l4 182l-4 195q0 57 -33 98t-80 41h-51l72 189q96 0 212.5 19.5t194.5 41.5l8 -8l8 -113l9 -8q47 47 138 88t169 41q70 0 150.5 -32.5t129.5 -82.5q88 63 119 78q82 37 215 37q123 0 197 -94t74 -236l-4 -436q0 -41 30.5 -67.5 t79.5 -26.5l-78 -213h-532l78 213q43 0 64.5 26.5t21.5 67.5v363q0 57 -30 95t-77 38q-49 0 -96 -40t-47 -95l-8 -361q0 -41 30.5 -67.5t79.5 -26.5l-78 -213h-532l78 213q43 0 64.5 26.5t21.5 67.5v359q0 61 -30 99t-83 38q-59 0 -98 -39t-39 -100l-8 -357 q0 -39 31.5 -66.5t78.5 -27.5l-78 -213h-536z" />
<glyph unicode="n" horiz-adv-x="1349" d="M37 0l78 213q43 0 64.5 26.5t21.5 67.5l4 182l-4 195q0 57 -33 98t-80 41h-51l72 189q96 0 212.5 19.5t194.5 41.5l8 -8l8 -113l9 -8q47 47 145 88t178 41q131 0 239.5 -98t108.5 -232l-6 -436q0 -39 32 -66.5t79 -27.5l-78 -213h-555l78 213q51 0 76.5 27.5t25.5 66.5 q6 72 6 322q0 72 -49 123t-119 51q-33 0 -70.5 -14.5t-56.5 -34.5q-10 -10 -18 -36t-8 -54q0 -23 -3 -149t-5 -208q0 -49 31.5 -71.5t78.5 -22.5h49l-77 -213h-586z" />
<glyph unicode="o" horiz-adv-x="1304" d="M53 463q0 319 193 475q168 135 456 135q285 0 424 -141q125 -125 125 -348q0 -322 -217 -482q-184 -135 -481 -135q-250 0 -381 144q-119 131 -119 352zM430 545q0 -174 55 -228q40 -38 156 -38h6q127 0 168 30q59 45 59 195q0 117 -32 180q-55 106 -205 107 q-125 0 -166 -50.5t-41 -195.5z" />
<glyph unicode="p" horiz-adv-x="1337" d="M37 -553l78 213q43 0 64.5 26.5t21.5 67.5q6 66 8 259.5t2 281.5l-4 389q0 57 -33 98t-80 41h-51l72 189q96 0 212.5 19.5t194.5 41.5l8 -8l9 -129l8 -8q45 61 112 96q92 49 226 49q150 0 264 -117q135 -137 135 -370q0 -305 -154 -471q-137 -147 -352 -148 q-96 0 -144 19.5t-87 62.5q0 -98 4 -177t6 -101q0 -49 57.5 -80t108.5 -31h113l-78 -213h-721zM547 268q14 -12 49 -18t84 -6q131 0 179 52t48 214q0 121 -30 195q-41 98 -132 98q-74 0 -131 -72t-57 -164q0 -80 -4 -158.5t-6 -140.5z" />
<glyph unicode="q" horiz-adv-x="1230" d="M53 446q0 86 25 177q51 184 178 295q177 155 483 155h4q47 0 165 -10t182 -10q0 -102 -5.5 -329.5t-5.5 -254.5q0 -170 5.5 -351t9.5 -325q0 -53 45 -93t92 -40l-78 -213h-666l78 213h68q41 0 71.5 39t30.5 92l8 260l-8 8q-55 -43 -104 -63q-68 -29 -148 -29 q-209 0 -325 146q-104 131 -105 333zM430 481q0 -96 38 -165.5t124 -69.5q70 0 110.5 56t40.5 134q0 100 -3 194.5t-5 147.5q-18 18 -42.5 31.5t-41.5 13.5q-113 0 -167 -90t-54 -252z" />
<glyph unicode="r" horiz-adv-x="915" d="M37 0l78 213q43 0 64.5 26.5t21.5 67.5l4 182l-4 195q0 57 -33 98t-80 41h-51l72 189q96 0 212.5 19.5t194.5 41.5l8 -8l8 -129l9 -8q78 84 159.5 114.5t206.5 30.5l8 -8q-20 -41 -53 -135t-51 -160h-104q-74 0 -113 -39q-53 -53 -53 -184q0 -61 1 -127t9 -96 q0 -49 50 -80t99 -31h88l-77 -213h-674z" />
<glyph unicode="s" horiz-adv-x="1044" d="M53 307l228 103q25 -133 69.5 -169t122.5 -36q45 0 72.5 19.5t27.5 45.5q0 74 -133 129q-213 90 -252 117q-135 94 -135 260q0 117 105.5 197t261.5 80h516v-246l-250 -86q-8 53 -43 84q-49 43 -143 43q-33 0 -56.5 -16.5t-23.5 -38.5q0 -63 147 -101q213 -53 275 -88 q149 -86 149 -268q0 -186 -123 -268q-102 -68 -295 -68h-505q2 20 3 51t1 47q0 117 -19 209z" />
<glyph unicode="t" horiz-adv-x="876" d="M20 848l74 205q76 0 147.5 69.5t100.5 169.5l203 64l8 -8q0 -33 -3 -132.5t-5 -162.5q57 0 157.5 4t120.5 4l8 -8l-73 -205h-213v-461q0 -78 43 -117q36 -32 93 -32h3q35 0 77 11t66 25l17 -12l-68 -252q-49 -18 -130 -30.5t-148 -12.5q-145 0 -226.5 95.5t-81.5 238.5 q0 113 -4 311.5t-4 235.5h-162z" />
<glyph unicode="u" horiz-adv-x="1310" d="M20 825l72 189q84 0 206 18.5t222 40.5l8 -8q0 -25 -3 -184.5t-5 -264.5v-223q0 -155 150 -155h2q25 0 74 21.5t85 47.5v377q0 59 -32.5 100t-79.5 41h-51l71 189q84 0 213 19.5t215 39.5l9 -8q0 -23 -4.5 -184.5t-4.5 -264.5v-309q0 -41 31 -67.5t80 -26.5l-78 -213 h-369v109q-84 -66 -173 -104t-185 -38q-86 0 -187.5 88t-101.5 183v446q0 59 -32.5 100t-79.5 41h-52z" />
<glyph unicode="v" horiz-adv-x="1165" d="M20 844l72 209h590l-74 -205q-31 0 -58.5 -27.5t-27.5 -66.5q0 -35 45 -140.5t119 -238.5q43 113 80 219t37 133q0 51 -39 86t-92 35l71 205h414l8 -9q-43 -90 -174 -420.5t-239 -623.5l-283 -33q-121 334 -203 527q-47 109 -106 229q-41 80 -70 100.5t-70 20.5z" />
<glyph unicode="w" horiz-adv-x="1779" d="M20 844l72 209h563l-71 -205q-29 0 -50.5 -30t-21.5 -75q0 -37 31.5 -117.5t103.5 -207.5q45 115 75 206t30 119q0 74 -72 99l-18 2l-17 4l72 205h579l-71 -205q-29 0 -50.5 -30t-21.5 -75q0 -37 32 -117.5t103 -207.5q45 115 75 206t30 119q0 43 -31 74t-76 31l72 205 h414l8 -9q-37 -76 -113 -241q-84 -184 -166 -377q-113 -262 -172 -426l-282 -33q-41 139 -84 279q-51 168 -76 241q-117 -268 -199 -487l-282 -33q-90 305 -150 488q-70 213 -96 268q-41 80 -70 100.5t-70 20.5z" />
<glyph unicode="x" horiz-adv-x="1243" d="M20 0l78 213q20 0 37 7t29 22l291 207l-275 331q-23 18 -43 37q-39 31 -65 31l71 205h594l-73 -205q-27 0 -38.5 -15.5t-11.5 -41.5q0 -29 15 -48l63 -79l62 79q18 23 18 50q0 37 -7 46t-32 9l74 205h377l-74 -205q-37 0 -65.5 -13.5t-57.5 -48.5l-178 -215l266 -290 q61 -68 135 -68l-77 -213h-603l78 213q25 -4 25 25q0 10 -4 17t-6 9l-39 60l-62 -52q-23 -23 -18 -41q4 -18 22 -18h25l-78 -213h-453z" />
<glyph unicode="y" horiz-adv-x="1189" d="M20 848l72 205h604l-73 -205q-31 0 -58.5 -27.5t-27.5 -66.5q0 -43 48 -152.5t111 -212.5q43 109 74 213.5t31 140.5q0 43 -29 74t-74 31l72 205h412l8 -9q-27 -49 -83 -187t-93 -247l-293 -843q-70 -201 -152 -263q-103 -77 -350 -77h-6h-145l90 282h88q98 0 153 53 q66 63 90 209l-337 756q-31 68 -50 88q-29 33 -82 33z" />
<glyph unicode="z" horiz-adv-x="1036" d="M53 213q115 137 246 324.5t193 298.5l-11 14h-49q-90 0 -127 -45q-16 -20 -47 -109h-199l-6 9q33 100 54.5 183t31.5 165h733l74 -181q-94 -113 -222 -308t-202 -339l10 -12h119q51 0 87 53t57 152h192l-41 -418h-799z" />
<glyph unicode="{" horiz-adv-x="808" d="M41 694v111h61q35 0 59.5 24.5t24.5 61.5q0 231 9.5 364.5t50.5 251.5q12 27 35.5 35t56.5 8q135 0 214 12.5t132 30.5l12 -61q-86 -25 -110 -35q-59 -25 -72 -59q-25 -72 -35 -226.5t-10 -337.5q0 -33 -34 -74.5t-68 -47.5v-11q35 -8 68.5 -47t33.5 -80 q0 -246 22.5 -427t53.5 -220q14 -16 76.5 -28.5t134.5 -12.5l12 -61q-88 0 -252 -16.5t-199 -16.5q-25 0 -45 33t-32 86q-23 102 -38.5 269t-15.5 382q0 39 -24.5 65.5t-61.5 26.5h-59z" />
<glyph unicode="|" horiz-adv-x="532" d="M164 -23q12 63 18 186t6 277v613q0 141 -5 227t-15 123l176 67l16 -16q-16 -86 -16 -401v-615q0 -160 6 -277.5t19 -160.5l-197 -33z" />
<glyph unicode="}" horiz-adv-x="808" d="M41 1561q88 0 252 16t199 16q25 0 45 -32.5t32 -85.5q25 -111 39.5 -241t14.5 -337q0 -39 24.5 -65.5t61.5 -26.5h59v-111h-61q-35 0 -59.5 -24.5t-24.5 -61.5q0 -254 -7 -360q-12 -213 -53 -330q-12 -27 -35.5 -35t-56.5 -8q-135 0 -214 -12.5t-132 -30.5l-12 62 q86 25 110 34q59 25 72 60q25 70 35 255t10 382q0 33 34 74.5t68 48.5v10q-35 8 -68.5 47t-33.5 80q0 238 -21.5 386t-54.5 187q-14 16 -76.5 28.5t-134.5 12.5z" />
<glyph unicode="~" horiz-adv-x="1093" d="M82 563q49 109 135 186.5t162 77.5q66 0 143 -55q172 -123 221 -123q74 0 146 74q57 57 69 104l54 -86q-70 -135 -165 -220t-183 -85q-57 0 -179.5 85t-177.5 85q-49 0 -99 -35.5t-73 -87.5z" />
<glyph unicode="&#xa2;" horiz-adv-x="1046" d="M82 481q0 254 113 404q106 141 309 176q0 80 -25 153l211 68l19 -16q-8 -31 -12.5 -90.5t-4.5 -106.5q76 -10 117 -20.5t86 -24.5l41 -258l-10 -23q-45 29 -141.5 48.5t-166.5 19.5q-98 0 -135 -41q-16 -18 -26.5 -75.5t-10.5 -121.5q0 -147 74 -233q68 -78 168 -78 q82 0 159 10.5t111 26.5l7 -10l-74 -279q-33 -10 -88 -20t-111 -17q0 -51 5 -82.5t16 -78.5l-219 -39l-11 12q6 35 13.5 100.5t7.5 87.5q-188 33 -305 174.5t-117 333.5z" />
<glyph unicode="&#xa3;" horiz-adv-x="1361" d="M82 0l78 213q90 0 152.5 79t62.5 191v152h-230l72 213h158q0 16 -8 70q-18 119 -19 178q0 141 145.5 241.5t352.5 100.5h346l-100 -283h-261q-49 0 -80.5 -22.5t-31.5 -59.5q0 -39 2 -67q10 -143 10 -158h338l-57 -213h-281q0 -131 -40 -245t-113 -177h251q104 0 156 78 q37 57 37 129l258 57v-477h-1198z" />
<glyph unicode="&#xa5;" horiz-adv-x="1413" d="M41 1233l72 205h682l-74 -205q-49 0 -82 -28.5t-33 -69.5q0 -23 40 -100t89 -136q66 96 135 236q80 160 129 303q94 0 204 8t202 24l8 -8q-119 -147 -213 -284.5t-186 -286.5l266 8l8 -8l-51 -148h-309l-80 -147l430 8l8 -8l-51 -147h-389l6 -142q0 -49 31.5 -71.5 t79.5 -22.5h49l-78 -213h-610l77 213q43 0 64.5 26.5t21.5 67.5v142q-88 0 -241.5 -4.5t-179.5 -4.5l-9 9l52 147h344l-76 147q-80 0 -169 -3t-140 -5l-9 8l52 148h190l-94 182q-35 66 -83 113t-83 47z" />
<glyph unicode="&#xa8;" horiz-adv-x="1320" d="M33 0l78 213q43 0 64.5 26.5t21.5 67.5q0 47 3 193.5t5 242.5q0 72 -3 167.5t-5 201.5q0 51 -39 86t-92 35l71 205h1106v-332l-237 -53q0 76 -35 128t-107 52h-176q-47 0 -83 -27.5t-36 -66.5q0 -31 -4 -157t-4 -155h98q39 0 70 29t31 70l246 55v-477l-246 -55v55 q0 47 -30 78.5t-71 31.5h-98q0 -74 4 -204.5t4 -157.5q33 -16 98.5 -27.5t145.5 -11.5q104 0 156 78q37 57 37 129l258 57v-477h-1231zM307 1573q0 39 13.5 86t13.5 76q0 115 84 170q67 45 176 45q59 0 86 -60q20 -45 20 -114q0 -125 -149 -195q-104 -49 -197 -49 q-14 0 -26 8q-20 14 -21 33zM733 1573q0 39 13.5 86t13.5 76q0 115 84 170q67 45 176 45q59 0 86 -60q20 -45 20 -114q0 -125 -149 -195q-104 -49 -197 -49q-14 0 -26 8q-20 14 -21 33z" />
<glyph unicode="&#xa9;" horiz-adv-x="1646" d="M82 719q0 311 216 531t525 220q307 0 524.5 -219t217.5 -532q0 -311 -216.5 -531.5t-525.5 -220.5q-307 0 -524 219.5t-217 532.5zM160 719q0 -281 194.5 -477.5t468.5 -196.5t469 196.5t195 477.5t-194.5 477.5t-469.5 196.5q-274 0 -468.5 -197t-194.5 -477zM406 723 q0 203 93 319.5t279 116.5q76 0 176.5 -10.5t192.5 -28.5v-211l-148 -67l-10 8v59q0 39 -37 68t-75 29q-66 0 -107 -8.5t-65 -32.5q-59 -59 -60 -242q0 -170 62 -229q49 -49 170 -50q39 0 114.5 10.5t145.5 28.5l10 -12l-43 -182q-115 -31 -242 -31q-238 0 -360 160 q-96 125 -96 305z" />
<glyph unicode="&#xab;" horiz-adv-x="1021" d="M82 438v148l440 381l8 -9v-98l-251 -348l251 -348v-98l-8 -9zM492 438v148l440 381l8 -9v-98l-252 -348l252 -348v-98l-8 -9z" />
<glyph unicode="&#xad;" horiz-adv-x="608" d="M41 514l72 205h225q53 0 136 4t85 4l8 -8l-80 -205h-223q-162 -8 -217 -8z" />
<glyph unicode="&#xae;" horiz-adv-x="1646" d="M82 719q0 311 216 531t525 220q307 0 524.5 -219t217.5 -532q0 -311 -216.5 -531.5t-525.5 -220.5q-307 0 -524 219.5t-217 532.5zM160 719q0 -281 194.5 -477.5t468.5 -196.5t469 196.5t195 477.5t-194.5 477.5t-469.5 196.5q-274 0 -468.5 -197t-194.5 -477zM457 274 l47 129q51 0 51 56l4 262l-4 221q0 33 -22.5 53.5t-57.5 20.5l43 123h379q123 0 190.5 -50.5t67.5 -146.5q0 -113 -65 -166q-78 -41 -99 -51q41 -45 70 -94q45 -74 84 -172q10 -23 41 -39.5t61 -16.5l-47 -129h-205q-55 147 -92 213q-51 94 -123 156l-2 -184 q0 -29 19.5 -42.5t46.5 -13.5h30l-47 -129h-370zM774 815q20 -8 35.5 -11t26.5 -3q41 0 66.5 32.5t25.5 69.5q0 41 -22.5 77t-57.5 36q-55 0 -64 -29q-4 -29 -6 -43z" />
<glyph unicode="&#xb8;" horiz-adv-x="1118" d="M53 530q0 221 148 375q162 168 424 168q207 0 329.5 -138t122.5 -345q0 -80 -8 -109q-70 0 -286 3t-353 5q0 -92 80 -155.5t197 -63.5q109 0 185.5 11.5t143.5 35.5l8 -8l-96 -282q-39 -35 -116.5 -47.5t-227.5 -12.5q-268 0 -416 166q-135 154 -135 397zM182 1155 q0 39 13.5 86t13.5 76q0 115 84 170q67 45 176 45q59 0 86 -59q20 -45 20 -115q0 -125 -149 -195q-104 -49 -197 -49q-14 0 -26 8q-20 14 -21 33zM438 711q33 -4 86 -8.5t86 -4.5h68q20 0 31.5 21.5t11.5 42.5q0 55 -32 80.5t-89 25.5q-29 0 -58.5 -10t-43 -22.5t-33 -49 t-27.5 -75.5zM608 1155q0 39 13.5 86t13.5 76q0 115 84 170q67 45 176 45q59 0 86 -59q20 -45 20 -115q0 -125 -149 -195q-104 -49 -197 -49q-14 0 -26 8q-20 14 -21 33z" />
<glyph unicode="&#xbb;" horiz-adv-x="1021" d="M82 66v98l252 348l-252 348v98l8 9l440 -381v-148l-440 -381zM492 66v98l251 348l-251 348v98l8 9l440 -381v-148l-440 -381z" />
<glyph unicode="&#x2000;" horiz-adv-x="975" />
<glyph unicode="&#x2001;" horiz-adv-x="1950" />
<glyph unicode="&#x2002;" horiz-adv-x="975" />
<glyph unicode="&#x2003;" horiz-adv-x="1950" />
<glyph unicode="&#x2004;" horiz-adv-x="650" />
<glyph unicode="&#x2005;" horiz-adv-x="487" />
<glyph unicode="&#x2006;" horiz-adv-x="325" />
<glyph unicode="&#x2007;" horiz-adv-x="325" />
<glyph unicode="&#x2008;" horiz-adv-x="243" />
<glyph unicode="&#x2009;" horiz-adv-x="390" />
<glyph unicode="&#x200a;" horiz-adv-x="108" />
<glyph unicode="&#x2010;" horiz-adv-x="608" d="M41 514l72 205h225q53 0 136 4t85 4l8 -8l-80 -205h-223q-162 -8 -217 -8z" />
<glyph unicode="&#x2011;" horiz-adv-x="608" d="M41 514l72 205h225q53 0 136 4t85 4l8 -8l-80 -205h-223q-162 -8 -217 -8z" />
<glyph unicode="&#x2012;" horiz-adv-x="608" d="M41 514l72 205h225q53 0 136 4t85 4l8 -8l-80 -205h-223q-162 -8 -217 -8z" />
<glyph unicode="&#x2013;" horiz-adv-x="1310" d="M41 522l51 148h739l431 8l8 -8l-51 -148h-785q-82 0 -221 -4t-164 -4z" />
<glyph unicode="&#x2014;" horiz-adv-x="2048" d="M41 522l49 148h1479l430 8l8 -8l-49 -148h-1524q-82 0 -221 -4t-164 -4z" />
<glyph unicode="&#x2018;" horiz-adv-x="491" d="M82 1135q0 82 55 164.5t172 170.5h49q-18 -66 -18 -104q0 -43 35 -135t35 -133q0 -39 -31 -80t-74 -57.5t-71.5 -25.5t-53.5 -9q-53 0 -75.5 64.5t-22.5 144.5z" />
<glyph unicode="&#x2019;" horiz-adv-x="491" d="M82 1298q0 39 30.5 80t73.5 57.5t64 22.5q36 12 61 12q53 0 76 -64.5t23 -143.5q0 -82 -55.5 -165t-172.5 -171h-49q18 66 19 104q0 43 -35 135t-35 133z" />
<glyph unicode="&#x201a;" horiz-adv-x="491" d="M82 238q0 39 30.5 79.5t73.5 57t64 22.5q36 13 61 13q53 0 76 -64.5t23 -144.5q0 -82 -55.5 -165t-172.5 -171h-49q18 66 19 104q0 43 -35 135.5t-35 133.5z" />
<glyph unicode="&#x201c;" horiz-adv-x="901" d="M82 1135q0 82 55 164.5t172 170.5h49q-18 -66 -18 -104q0 -43 35 -135t35 -133q0 -39 -31 -80t-74 -57.5t-71.5 -25.5t-53.5 -9q-53 0 -75.5 64.5t-22.5 144.5zM492 1135q0 82 55 164.5t172 170.5h49q-18 -66 -18 -104q0 -43 34.5 -135t34.5 -133q0 -39 -30.5 -80 t-73.5 -57.5t-72 -25.5t-53 -9q-53 0 -75.5 64.5t-22.5 144.5z" />
<glyph unicode="&#x201d;" horiz-adv-x="901" d="M82 1298q0 39 30.5 80t73.5 57.5t64 22.5q36 12 61 12q53 0 76 -64.5t23 -143.5q0 -82 -55.5 -165t-172.5 -171h-49q18 66 19 104q0 43 -35 135t-35 133zM492 1298q0 39 30.5 80t73.5 57.5t63 22.5q37 12 62 12q53 0 75.5 -64.5t22.5 -143.5q0 -82 -55 -165t-172 -171 h-49q18 66 18 104q0 43 -34.5 135t-34.5 133z" />
<glyph unicode="&#x201e;" horiz-adv-x="901" d="M82 238q0 39 30.5 79.5t73.5 57t64 22.5q36 13 61 13q53 0 76 -64.5t23 -144.5q0 -82 -55.5 -165t-172.5 -171h-49q18 66 19 104q0 43 -35 135.5t-35 133.5zM492 238q0 39 30.5 79.5t73.5 57t63 22.5q37 13 62 13q53 0 75.5 -64.5t22.5 -144.5q0 -82 -55 -165t-172 -171 h-49q18 66 18 104q0 43 -34.5 135.5t-34.5 133.5z" />
<glyph unicode="&#x2022;" horiz-adv-x="749" d="M82 614q0 127 77 197t238 70q111 0 191 -78t80 -178q0 -123 -99.5 -202t-244.5 -79q-96 0 -169 83t-73 187z" />
<glyph unicode="&#x2026;" horiz-adv-x="1759" d="M82 158q0 127 135 211q104 66 182 65q49 0 50 -24q0 -16 -5.5 -45t-5.5 -33q0 -25 5.5 -76t5.5 -57q0 -115 -84 -170q-68 -45 -177 -45q-59 0 -82.5 52t-23.5 122zM696 158q0 127 135 211q104 66 183 65q49 0 49 -24q0 -16 -5 -45t-5 -33q0 -25 5 -76t5 -57 q0 -115 -84 -170q-67 -45 -176 -45q-59 0 -83 52t-24 122zM1311 158q0 127 135 211q104 66 182 65q49 0 49 -24q0 -16 -5 -45t-5 -33q0 -25 5 -76t5 -57q0 -115 -84 -170q-67 -45 -176 -45q-59 0 -82.5 52t-23.5 122z" />
<glyph unicode="&#x202f;" horiz-adv-x="390" />
<glyph unicode="&#x2039;" horiz-adv-x="612" d="M82 438v148l440 381l8 -9v-98l-251 -348l251 -348v-98l-8 -9z" />
<glyph unicode="&#x203a;" horiz-adv-x="612" d="M82 66v98l252 348l-252 348v98l8 9l440 -381v-148l-440 -381z" />
<glyph unicode="&#x205f;" horiz-adv-x="487" />
<glyph unicode="&#x2122;" horiz-adv-x="1708" d="M82 1176v262h590v-224l-113 -38h-10v69q0 31 -23.5 50.5t-58.5 19.5v-174l2 -252q0 -29 17.5 -48.5t39.5 -19.5h49l-36 -104h-369l41 104q31 0 51.5 18.5t20.5 49.5l4 252v174q-31 0 -55.5 -20.5t-24.5 -49.5v-31l-115 -38h-10zM694 717l39 104q43 0 43 49l2 217l-2 187 q0 27 -20.5 43t-48.5 16l38 105h228q41 -100 104.5 -222t118.5 -208q43 68 101.5 199.5t91.5 230.5h278l-39 -105q-14 0 -27.5 -13t-13.5 -34l-4 -199l4 -217q0 -49 55 -49h25l-41 -104h-332l39 104q78 0 78 76l4 244q-37 -63 -78 -152q-55 -119 -116 -272l-97 -17 q-53 117 -116.5 239t-112.5 202l-2 -217q0 -43 25.5 -73t58.5 -30h47l-39 -104h-291z" />
<glyph unicode="&#x25fc;" horiz-adv-x="1054" d="M0 0v1055h1055v-1055h-1055z" />
</font>
</defs>
</svg>
